#N canvas 704 99 549 456 10;
#X obj 62 191 esn~;
#X text 44 21 Echo State Network signal external;
#X msg 360 25 \; pd dsp 1;
#X msg 431 25 \; pd dsp 0;
#X obj 61 119 noise~;
#X obj 63 250 env~;
#X obj 66 273 hsl 128 15 0 127 0 0 empty empty empty -2 -8 0 10 -262144
-1 -1 0 1;
#N canvas 0 0 450 300 reset-slider 0;
#X msg 169 149 0;
#X obj 169 129 metro 1000;
#X obj 169 89 loadbang;
#X msg 169 109 1;
#X obj 169 196 outlet;
#X connect 0 0 4 0;
#X connect 1 0 0 0;
#X connect 2 0 3 0;
#X connect 3 0 1 0;
#X restore 97 250 pd reset-slider;
#N canvas 0 0 450 300 cpu-meter 0;
#X obj 118 168 cputime;
#X obj 118 28 loadbang;
#X obj 118 112 metro 1000;
#X msg 118 56 1;
#X floatatom 118 84 0 0 0 0 - - -;
#X obj 118 140 t b b;
#X obj 118 228 * 0.1;
#X obj 118 197 int;
#X text 163 84 <-- on/off;
#X obj 118 255 outlet;
#X connect 0 0 7 0;
#X connect 1 0 3 0;
#X connect 2 0 5 0;
#X connect 3 0 4 0;
#X connect 4 0 2 0;
#X connect 5 0 0 0;
#X connect 5 1 0 1;
#X connect 6 0 9 0;
#X connect 7 0 6 0;
#X restore 364 215 pd cpu-meter;
#X floatatom 364 237 5 0 0 1 %cpu - -;
#X connect 0 0 5 0;
#X connect 4 0 0 0;
#X connect 5 0 6 0;
#X connect 7 0 6 0;
#X connect 8 0 9 0;
